<svg xmlns="http://www.w3.org/2000/svg" width="600" height="400" viewBox="0 0 600 400">
  <defs>
    <pattern id="dots6" x="0" y="0" width="20" height="20" patternUnits="userSpaceOnUse">
      <circle cx="1" cy="1" r="0.7" fill="rgba(0,212,255,0.07)"/>
    </pattern>
  </defs>
  <rect width="600" height="400" fill="#0a0e1a"/>
  <rect width="600" height="400" fill="url(#dots6)"/>
  <!-- Header -->
  <rect width="600" height="44" fill="#0d1428"/>
  <rect width="600" height="1" y="44" fill="rgba(0,212,255,0.2)"/>
  <text x="20" y="27" font-family="monospace" font-size="10" fill="#00d4ff" font-weight="bold">KLG International · IT Operations</text>
  <text x="380" y="27" font-family="monospace" font-size="8" fill="rgba(255,255,255,0.3)">Systems Monitor · Paranaque City</text>
  <rect x="530" y="12" width="58" height="20" rx="3" fill="rgba(0,255,120,0.1)" stroke="rgba(0,255,120,0.25)" stroke-width="1"/>
  <text x="559" y="25" font-family="monospace" font-size="7" fill="#00ff78" text-anchor="middle">● ONLINE</text>
  <!-- Server status cards -->
  <text x="20" y="64" font-family="monospace" font-size="7" fill="rgba(0,212,255,0.35)">SERVER STATUS</text>
  <rect x="20" y="70" width="108" height="54" rx="5" fill="rgba(0,255,120,0.06)" stroke="rgba(0,255,120,0.2)" stroke-width="1"/>
  <text x="74" y="85" font-family="monospace" font-size="7" fill="rgba(0,255,120,0.5)" text-anchor="middle">WEB SERVER</text>
  <text x="74" y="103" font-family="monospace" font-size="16" fill="#00ff78" text-anchor="middle" font-weight="bold">● UP</text>
  <text x="74" y="117" font-family="monospace" font-size="6" fill="rgba(0,255,120,0.4)" text-anchor="middle">Uptime: 99.9%</text>
  <rect x="136" y="70" width="108" height="54" rx="5" fill="rgba(0,255,120,0.06)" stroke="rgba(0,255,120,0.2)" stroke-width="1"/>
  <text x="190" y="85" font-family="monospace" font-size="7" fill="rgba(0,255,120,0.5)" text-anchor="middle">DATABASE</text>
  <text x="190" y="103" font-family="monospace" font-size="16" fill="#00ff78" text-anchor="middle" font-weight="bold">● UP</text>
  <text x="190" y="117" font-family="monospace" font-size="6" fill="rgba(0,255,120,0.4)" text-anchor="middle">MySQL 8.0</text>
  <rect x="252" y="70" width="108" height="54" rx="5" fill="rgba(0,255,120,0.06)" stroke="rgba(0,255,120,0.2)" stroke-width="1"/>
  <text x="306" y="85" font-family="monospace" font-size="7" fill="rgba(0,255,120,0.5)" text-anchor="middle">FILE SERVER</text>
  <text x="306" y="103" font-family="monospace" font-size="16" fill="#00ff78" text-anchor="middle" font-weight="bold">● UP</text>
  <text x="306" y="117" font-family="monospace" font-size="6" fill="rgba(0,255,120,0.4)" text-anchor="middle">Samba/NFS</text>
  <rect x="368" y="70" width="108" height="54" rx="5" fill="rgba(255,144,0,0.07)" stroke="rgba(255,144,0,0.25)" stroke-width="1"/>
  <text x="422" y="85" font-family="monospace" font-size="7" fill="rgba(255,144,0,0.5)" text-anchor="middle">MAIL SERVER</text>
  <text x="422" y="103" font-family="monospace" font-size="14" fill="#FF9000" text-anchor="middle" font-weight="bold">! WARN</text>
  <text x="422" y="117" font-family="monospace" font-size="6" fill="rgba(255,144,0,0.4)" text-anchor="middle">High Queue</text>
  <rect x="484" y="70" width="104" height="54" rx="5" fill="rgba(0,255,120,0.06)" stroke="rgba(0,255,120,0.2)" stroke-width="1"/>
  <text x="536" y="85" font-family="monospace" font-size="7" fill="rgba(0,255,120,0.5)" text-anchor="middle">NETWORK</text>
  <text x="536" y="103" font-family="monospace" font-size="16" fill="#00ff78" text-anchor="middle" font-weight="bold">● UP</text>
  <text x="536" y="117" font-family="monospace" font-size="6" fill="rgba(0,255,120,0.4)" text-anchor="middle">100Mbps LAN</text>
  <!-- CPU/Memory panel -->
  <rect x="20" y="138" width="280" height="140" rx="6" fill="rgba(0,0,0,0.2)" stroke="rgba(0,212,255,0.1)" stroke-width="1"/>
  <text x="30" y="154" font-family="monospace" font-size="8" fill="rgba(0,212,255,0.5)">Resource Usage</text>
  <!-- CPU -->
  <text x="30" y="172" font-family="monospace" font-size="7" fill="rgba(255,255,255,0.4)">CPU</text>
  <text x="268" y="172" font-family="monospace" font-size="7" fill="#00d4ff" text-anchor="end">42%</text>
  <rect x="30" y="175" width="248" height="8" rx="4" fill="rgba(255,255,255,0.06)"/>
  <rect x="30" y="175" width="104" height="8" rx="4" fill="rgba(0,212,255,0.6)"/>
  <!-- RAM -->
  <text x="30" y="198" font-family="monospace" font-size="7" fill="rgba(255,255,255,0.4)">RAM</text>
  <text x="268" y="198" font-family="monospace" font-size="7" fill="#a855f7" text-anchor="end">68%</text>
  <rect x="30" y="201" width="248" height="8" rx="4" fill="rgba(255,255,255,0.06)"/>
  <rect x="30" y="201" width="169" height="8" rx="4" fill="rgba(168,85,247,0.6)"/>
  <!-- Disk -->
  <text x="30" y="224" font-family="monospace" font-size="7" fill="rgba(255,255,255,0.4)">Disk /</text>
  <text x="268" y="224" font-family="monospace" font-size="7" fill="#00ff78" text-anchor="end">34%</text>
  <rect x="30" y="227" width="248" height="8" rx="4" fill="rgba(255,255,255,0.06)"/>
  <rect x="30" y="227" width="84" height="8" rx="4" fill="rgba(0,255,120,0.6)"/>
  <!-- Network -->
  <text x="30" y="250" font-family="monospace" font-size="7" fill="rgba(255,255,255,0.4)">Network</text>
  <text x="268" y="250" font-family="monospace" font-size="7" fill="#FF9000" text-anchor="end">78%</text>
  <rect x="30" y="253" width="248" height="8" rx="4" fill="rgba(255,255,255,0.06)"/>
  <rect x="30" y="253" width="194" height="8" rx="4" fill="rgba(255,144,0,0.55)"/>
  <!-- Temp -->
  <text x="30" y="274" font-family="monospace" font-size="7" fill="rgba(255,255,255,0.4)">CPU Temp</text>
  <text x="268" y="274" font-family="monospace" font-size="7" fill="#00d4ff" text-anchor="end">54°C</text>
  <rect x="30" y="277" width="248" height="8" rx="4" fill="rgba(255,255,255,0.06)"/>
  <rect x="30" y="277" width="134" height="8" rx="4" fill="rgba(0,212,255,0.45)"/>
  <!-- Helpdesk tickets panel -->
  <rect x="312" y="138" width="270" height="140" rx="6" fill="rgba(0,0,0,0.2)" stroke="rgba(0,212,255,0.1)" stroke-width="1"/>
  <text x="322" y="154" font-family="monospace" font-size="8" fill="rgba(0,212,255,0.5)">Helpdesk Tickets</text>
  <rect x="312" y="158" width="270" height="1" fill="rgba(0,212,255,0.08)"/>
  <!-- Ticket rows -->
  <rect x="320" y="164" width="254" height="20" rx="3" fill="rgba(255,80,80,0.07)"/>
  <rect x="320" y="164" width="4" height="20" rx="2" fill="rgba(255,80,80,0.5)"/>
  <text x="332" y="175" font-family="monospace" font-size="7" fill="rgba(255,255,255,0.5)">#TKT-0284 · Printer not working — HR Dept</text>
  <text x="332" y="182" font-family="monospace" font-size="6" fill="rgba(255,80,80,0.5)">HIGH · Open · 30 min ago</text>
  <rect x="320" y="190" width="254" height="20" rx="3" fill="rgba(255,144,0,0.07)"/>
  <rect x="320" y="190" width="4" height="20" rx="2" fill="rgba(255,144,0,0.5)"/>
  <text x="332" y="201" font-family="monospace" font-size="7" fill="rgba(255,255,255,0.5)">#TKT-0283 · Email not syncing · Exec</text>
  <text x="332" y="208" font-family="monospace" font-size="6" fill="rgba(255,144,0,0.5)">MED · In Progress · 2 hr ago</text>
  <rect x="320" y="216" width="254" height="20" rx="3" fill="rgba(0,255,120,0.06)"/>
  <rect x="320" y="216" width="4" height="20" rx="2" fill="rgba(0,255,120,0.4)"/>
  <text x="332" y="227" font-family="monospace" font-size="7" fill="rgba(255,255,255,0.4)">#TKT-0282 · PC slow startup · Acctg</text>
  <text x="332" y="234" font-family="monospace" font-size="6" fill="rgba(0,255,120,0.5)">LOW · Resolved · 4 hr ago</text>
  <rect x="320" y="242" width="254" height="20" rx="3" fill="rgba(0,212,255,0.06)"/>
  <rect x="320" y="242" width="4" height="20" rx="2" fill="rgba(0,212,255,0.4)"/>
  <text x="332" y="253" font-family="monospace" font-size="7" fill="rgba(255,255,255,0.4)">#TKT-0281 · VPN setup request · Dev</text>
  <text x="332" y="260" font-family="monospace" font-size="6" fill="rgba(0,212,255,0.5)">MED · Resolved · Yesterday</text>
  <!-- Network topology -->
  <rect x="20" y="290" width="280" height="80" rx="6" fill="rgba(0,0,0,0.2)" stroke="rgba(0,212,255,0.1)" stroke-width="1"/>
  <text x="30" y="306" font-family="monospace" font-size="8" fill="rgba(0,212,255,0.5)">Network Topology</text>
  <!-- Simple network diagram -->
  <rect x="136" y="318" width="44" height="24" rx="4" fill="rgba(0,212,255,0.12)" stroke="rgba(0,212,255,0.3)" stroke-width="1"/>
  <text x="158" y="333" font-family="monospace" font-size="6" fill="#00d4ff" text-anchor="middle">Router</text>
  <line x1="158" y1="318" x2="80" y2="300" stroke="rgba(0,212,255,0.2)" stroke-width="1"/>
  <line x1="158" y1="318" x2="240" y2="300" stroke="rgba(0,212,255,0.2)" stroke-width="1"/>
  <line x1="158" y1="342" x2="100" y2="360" stroke="rgba(0,212,255,0.2)" stroke-width="1"/>
  <line x1="158" y1="342" x2="220" y2="360" stroke="rgba(0,212,255,0.2)" stroke-width="1"/>
  <circle cx="80" cy="300" r="8" fill="rgba(0,255,120,0.15)" stroke="rgba(0,255,120,0.3)" stroke-width="1"/>
  <text x="80" y="303" font-family="monospace" font-size="4" fill="#00ff78" text-anchor="middle">SW01</text>
  <circle cx="240" cy="300" r="8" fill="rgba(0,255,120,0.15)" stroke="rgba(0,255,120,0.3)" stroke-width="1"/>
  <text x="240" y="303" font-family="monospace" font-size="4" fill="#00ff78" text-anchor="middle">SW02</text>
  <circle cx="100" cy="360" r="8" fill="rgba(0,212,255,0.1)" stroke="rgba(0,212,255,0.25)" stroke-width="1"/>
  <text x="100" y="363" font-family="monospace" font-size="4" fill="#00d4ff" text-anchor="middle">SRV01</text>
  <circle cx="220" cy="360" r="8" fill="rgba(168,85,247,0.1)" stroke="rgba(168,85,247,0.25)" stroke-width="1"/>
  <text x="220" y="363" font-family="monospace" font-size="4" fill="#a855f7" text-anchor="middle">SRV02</text>
  <!-- IT stats right bottom -->
  <rect x="312" y="290" width="270" height="80" rx="6" fill="rgba(0,0,0,0.2)" stroke="rgba(0,212,255,0.1)" stroke-width="1"/>
  <text x="322" y="306" font-family="monospace" font-size="8" fill="rgba(0,212,255,0.5)">IT Team Stats</text>
  <text x="345" y="338" font-family="monospace" font-size="18" fill="#00d4ff" font-weight="bold" text-anchor="middle">18</text>
  <text x="345" y="356" font-family="monospace" font-size="6" fill="rgba(0,212,255,0.4)" text-anchor="middle">Tickets/Month</text>
  <text x="445" y="338" font-family="monospace" font-size="18" fill="#00ff78" font-weight="bold" text-anchor="middle">94%</text>
  <text x="445" y="356" font-family="monospace" font-size="6" fill="rgba(0,255,120,0.4)" text-anchor="middle">Resolved</text>
  <text x="545" y="338" font-family="monospace" font-size="18" fill="#a855f7" font-weight="bold" text-anchor="middle">2h</text>
  <text x="545" y="356" font-family="monospace" font-size="6" fill="rgba(168,85,247,0.4)" text-anchor="middle">Avg Response</text>
  <!-- Stack footer -->
  <rect x="0" y="376" width="600" height="24" fill="rgba(0,0,0,0.5)"/>
  <rect x="0" y="376" width="600" height="1" fill="rgba(0,212,255,0.12)"/>
  <text x="12" y="391" font-family="monospace" font-size="7" fill="rgba(0,212,255,0.4)">Stack: Linux · Nagios · Zabbix · Samba · BIND · Postfix · PHP Helpdesk</text>
</svg>
