<svg xmlns="http://www.w3.org/2000/svg" width="600" height="400" viewBox="0 0 600 400">
  <defs>
    <pattern id="dots1" x="0" y="0" width="20" height="20" patternUnits="userSpaceOnUse">
      <circle cx="1" cy="1" r="0.7" fill="rgba(0,212,255,0.12)"/>
    </pattern>
    <linearGradient id="cardGrad1" x1="0%" y1="0%" x2="100%" y2="100%">
      <stop offset="0%" style="stop-color:rgba(0,212,255,0.12)"/>
      <stop offset="100%" style="stop-color:rgba(0,212,255,0.02)"/>
    </linearGradient>
  </defs>
  <rect width="600" height="400" fill="#0a0e1a"/>
  <rect width="600" height="400" fill="url(#dots1)"/>
  <!-- Nav bar -->
  <rect width="600" height="38" fill="#0d1428"/>
  <rect width="600" height="1" y="38" fill="rgba(0,212,255,0.2)"/>
  <circle cx="18" cy="19" r="5" fill="#ff5f56"/>
  <circle cx="32" cy="19" r="5" fill="#ffbd2e"/>
  <circle cx="46" cy="19" r="5" fill="#27c93f"/>
  <rect x="100" y="11" width="240" height="16" rx="3" fill="rgba(0,212,255,0.06)" stroke="rgba(0,212,255,0.15)" stroke-width="1"/>
  <text x="220" y="22" font-family="monospace" font-size="8" fill="rgba(0,212,255,0.45)" text-anchor="middle">logistics.aai.com.ph/dashboard</text>
  <text x="520" y="23" font-family="monospace" font-size="9" fill="rgba(0,212,255,0.5)">AAI Logistics</text>
  <!-- Sidebar -->
  <rect x="0" y="39" width="115" height="361" fill="rgba(8,12,24,0.9)"/>
  <rect x="115" y="39" width="1" height="361" fill="rgba(0,212,255,0.12)"/>
  <text x="57" y="62" font-family="monospace" font-size="8" fill="rgba(0,212,255,0.35)" text-anchor="middle">MENU</text>
  <rect x="8" y="68" width="99" height="24" rx="4" fill="rgba(0,212,255,0.12)" stroke="rgba(0,212,255,0.3)" stroke-width="1"/>
  <text x="57" y="83" font-family="monospace" font-size="8" fill="#00d4ff" text-anchor="middle">⬛ Dashboard</text>
  <text x="57" y="109" font-family="monospace" font-size="8" fill="rgba(255,255,255,0.3)" text-anchor="middle">📦 Shipments</text>
  <text x="57" y="131" font-family="monospace" font-size="8" fill="rgba(255,255,255,0.3)" text-anchor="middle">🚚 Tracking</text>
  <text x="57" y="153" font-family="monospace" font-size="8" fill="rgba(255,255,255,0.3)" text-anchor="middle">🏭 Warehouses</text>
  <text x="57" y="175" font-family="monospace" font-size="8" fill="rgba(255,255,255,0.3)" text-anchor="middle">📊 Reports</text>
  <text x="57" y="197" font-family="monospace" font-size="8" fill="rgba(255,255,255,0.3)" text-anchor="middle">⚙ Settings</text>
  <!-- KPI Cards -->
  <rect x="125" y="50" width="108" height="60" rx="6" fill="url(#cardGrad1)" stroke="rgba(0,212,255,0.2)" stroke-width="1"/>
  <text x="135" y="65" font-family="monospace" font-size="7" fill="rgba(0,212,255,0.5)">TOTAL SHIPMENTS</text>
  <text x="135" y="90" font-family="monospace" font-size="24" fill="#00d4ff" font-weight="bold">1,842</text>
  <text x="135" y="104" font-family="monospace" font-size="7" fill="rgba(0,255,120,0.7)">▲ +12.4% this month</text>
  <rect x="244" y="50" width="108" height="60" rx="6" fill="rgba(0,255,120,0.06)" stroke="rgba(0,255,120,0.2)" stroke-width="1"/>
  <text x="254" y="65" font-family="monospace" font-size="7" fill="rgba(0,255,120,0.5)">DELIVERED</text>
  <text x="254" y="90" font-family="monospace" font-size="24" fill="#00ff78" font-weight="bold">98.1%</text>
  <text x="254" y="104" font-family="monospace" font-size="7" fill="rgba(0,255,120,0.7)">▲ +0.3% vs last week</text>
  <rect x="363" y="50" width="108" height="60" rx="6" fill="rgba(255,144,0,0.06)" stroke="rgba(255,144,0,0.2)" stroke-width="1"/>
  <text x="373" y="65" font-family="monospace" font-size="7" fill="rgba(255,144,0,0.5)">IN TRANSIT</text>
  <text x="373" y="90" font-family="monospace" font-size="24" fill="#FF9000" font-weight="bold">67</text>
  <text x="373" y="104" font-family="monospace" font-size="7" fill="rgba(255,144,0,0.7)">▼ -3 since yesterday</text>
  <rect x="482" y="50" width="108" height="60" rx="6" fill="rgba(168,85,247,0.06)" stroke="rgba(168,85,247,0.2)" stroke-width="1"/>
  <text x="492" y="65" font-family="monospace" font-size="7" fill="rgba(168,85,247,0.5)">WAREHOUSES</text>
  <text x="492" y="90" font-family="monospace" font-size="24" fill="#a855f7" font-weight="bold">12</text>
  <text x="492" y="104" font-family="monospace" font-size="7" fill="rgba(168,85,247,0.7)">3 regions · PH</text>
  <!-- Chart panel -->
  <rect x="125" y="122" width="290" height="130" rx="6" fill="rgba(0,212,255,0.03)" stroke="rgba(0,212,255,0.1)" stroke-width="1"/>
  <text x="135" y="138" font-family="monospace" font-size="8" fill="rgba(0,212,255,0.5)">Shipment Volume — Last 7 Days</text>
  <line x1="140" y1="240" x2="405" y2="240" stroke="rgba(0,212,255,0.08)" stroke-width="1"/>
  <line x1="140" y1="210" x2="405" y2="210" stroke="rgba(0,212,255,0.05)" stroke-width="1"/>
  <line x1="140" y1="180" x2="405" y2="180" stroke="rgba(0,212,255,0.05)" stroke-width="1"/>
  <line x1="140" y1="150" x2="405" y2="150" stroke="rgba(0,212,255,0.05)" stroke-width="1"/>
  <rect x="147" y="200" width="28" height="40" rx="2" fill="rgba(0,212,255,0.25)"/>
  <rect x="185" y="188" width="28" height="52" rx="2" fill="rgba(0,212,255,0.3)"/>
  <rect x="223" y="175" width="28" height="65" rx="2" fill="rgba(0,212,255,0.4)"/>
  <rect x="261" y="192" width="28" height="48" rx="2" fill="rgba(0,212,255,0.32)"/>
  <rect x="299" y="163" width="28" height="77" rx="2" fill="rgba(0,212,255,0.5)"/>
  <rect x="337" y="180" width="28" height="60" rx="2" fill="rgba(0,212,255,0.38)"/>
  <rect x="375" y="152" width="28" height="88" rx="2" fill="#00d4ff" opacity="0.7"/>
  <polyline points="161,200 199,188 237,175 275,192 313,163 351,180 389,152" fill="none" stroke="rgba(0,212,255,0.8)" stroke-width="1.5"/>
  <text x="147" y="252" font-family="monospace" font-size="6" fill="rgba(255,255,255,0.25)">Mon</text>
  <text x="185" y="252" font-family="monospace" font-size="6" fill="rgba(255,255,255,0.25)">Tue</text>
  <text x="223" y="252" font-family="monospace" font-size="6" fill="rgba(255,255,255,0.25)">Wed</text>
  <text x="261" y="252" font-family="monospace" font-size="6" fill="rgba(255,255,255,0.25)">Thu</text>
  <text x="299" y="252" font-family="monospace" font-size="6" fill="rgba(255,255,255,0.25)">Fri</text>
  <text x="337" y="252" font-family="monospace" font-size="6" fill="rgba(255,255,255,0.25)">Sat</text>
  <text x="375" y="252" font-family="monospace" font-size="6" fill="rgba(0,212,255,0.6)">Sun</text>
  <!-- Right panel: shipment list -->
  <rect x="426" y="122" width="164" height="130" rx="6" fill="rgba(0,212,255,0.03)" stroke="rgba(0,212,255,0.1)" stroke-width="1"/>
  <text x="436" y="138" font-family="monospace" font-size="8" fill="rgba(0,212,255,0.5)">Recent Shipments</text>
  <rect x="426" y="142" width="164" height="1" fill="rgba(0,212,255,0.1)"/>
  <rect x="434" y="148" width="148" height="18" rx="3" fill="rgba(0,255,120,0.07)"/>
  <text x="440" y="160" font-family="monospace" font-size="7" fill="rgba(255,255,255,0.6)">SH-20260514-001</text>
  <rect x="536" y="150" width="40" height="13" rx="3" fill="rgba(0,255,120,0.15)"/>
  <text x="556" y="159" font-family="monospace" font-size="6" fill="#00ff78" text-anchor="middle">DONE</text>
  <rect x="434" y="171" width="148" height="18" rx="3" fill="rgba(255,144,0,0.07)"/>
  <text x="440" y="183" font-family="monospace" font-size="7" fill="rgba(255,255,255,0.6)">SH-20260514-002</text>
  <rect x="536" y="173" width="40" height="13" rx="3" fill="rgba(255,144,0,0.15)"/>
  <text x="556" y="182" font-family="monospace" font-size="6" fill="#FF9000" text-anchor="middle">TRANSIT</text>
  <rect x="434" y="194" width="148" height="18" rx="3" fill="rgba(0,255,120,0.07)"/>
  <text x="440" y="206" font-family="monospace" font-size="7" fill="rgba(255,255,255,0.6)">SH-20260514-003</text>
  <rect x="536" y="196" width="40" height="13" rx="3" fill="rgba(0,255,120,0.15)"/>
  <text x="556" y="205" font-family="monospace" font-size="6" fill="#00ff78" text-anchor="middle">DONE</text>
  <rect x="434" y="217" width="148" height="18" rx="3" fill="rgba(0,212,255,0.07)"/>
  <text x="440" y="229" font-family="monospace" font-size="7" fill="rgba(255,255,255,0.6)">SH-20260514-004</text>
  <rect x="536" y="219" width="40" height="13" rx="3" fill="rgba(0,212,255,0.15)"/>
  <text x="556" y="228" font-family="monospace" font-size="6" fill="#00d4ff" text-anchor="middle">PENDING</text>
  <!-- Bottom: inventory table -->
  <rect x="125" y="264" width="465" height="100" rx="6" fill="rgba(0,212,255,0.03)" stroke="rgba(0,212,255,0.1)" stroke-width="1"/>
  <text x="135" y="280" font-family="monospace" font-size="8" fill="rgba(0,212,255,0.5)">Warehouse Inventory Overview</text>
  <rect x="125" y="284" width="465" height="16" fill="rgba(0,212,255,0.06)"/>
  <text x="135" y="295" font-family="monospace" font-size="7" fill="rgba(0,212,255,0.6)">WAREHOUSE</text>
  <text x="270" y="295" font-family="monospace" font-size="7" fill="rgba(0,212,255,0.6)">LOCATION</text>
  <text x="380" y="295" font-family="monospace" font-size="7" fill="rgba(0,212,255,0.6)">CAPACITY</text>
  <text x="460" y="295" font-family="monospace" font-size="7" fill="rgba(0,212,255,0.6)">STATUS</text>
  <text x="135" y="314" font-family="monospace" font-size="7" fill="rgba(255,255,255,0.5)">WH-Manila-01</text>
  <text x="270" y="314" font-family="monospace" font-size="7" fill="rgba(255,255,255,0.5)">Pasay City</text>
  <text x="380" y="314" font-family="monospace" font-size="7" fill="rgba(255,255,255,0.5)">78%</text>
  <rect x="453" y="307" width="50" height="12" rx="3" fill="rgba(0,255,120,0.15)"/>
  <text x="478" y="316" font-family="monospace" font-size="6" fill="#00ff78" text-anchor="middle">Active</text>
  <text x="135" y="332" font-family="monospace" font-size="7" fill="rgba(255,255,255,0.5)">WH-Cebu-01</text>
  <text x="270" y="332" font-family="monospace" font-size="7" fill="rgba(255,255,255,0.5)">Cebu City</text>
  <text x="380" y="332" font-family="monospace" font-size="7" fill="rgba(255,255,255,0.5)">54%</text>
  <rect x="453" y="325" width="50" height="12" rx="3" fill="rgba(0,255,120,0.15)"/>
  <text x="478" y="334" font-family="monospace" font-size="6" fill="#00ff78" text-anchor="middle">Active</text>
  <text x="135" y="350" font-family="monospace" font-size="7" fill="rgba(255,255,255,0.5)">WH-Davao-01</text>
  <text x="270" y="350" font-family="monospace" font-size="7" fill="rgba(255,255,255,0.5)">Davao City</text>
  <text x="380" y="350" font-family="monospace" font-size="7" fill="rgba(255,255,255,0.5)">91%</text>
  <rect x="453" y="343" width="50" height="12" rx="3" fill="rgba(255,144,0,0.15)"/>
  <text x="478" y="352" font-family="monospace" font-size="6" fill="#FF9000" text-anchor="middle">Near Full</text>
  <!-- Stack footer -->
  <rect x="0" y="370" width="600" height="30" fill="rgba(0,0,0,0.4)"/>
  <rect x="0" y="370" width="600" height="1" fill="rgba(0,212,255,0.1)"/>
  <text x="12" y="389" font-family="monospace" font-size="7" fill="rgba(0,212,255,0.4)">Stack:</text>
  <rect x="50" y="376" width="44" height="14" rx="3" fill="rgba(255,100,50,0.15)" stroke="rgba(255,100,50,0.3)" stroke-width="1"/>
  <text x="72" y="386" font-family="monospace" font-size="7" fill="#ff6432" text-anchor="middle">Laravel</text>
  <rect x="100" y="376" width="38" height="14" rx="3" fill="rgba(65,184,131,0.15)" stroke="rgba(65,184,131,0.3)" stroke-width="1"/>
  <text x="119" y="386" font-family="monospace" font-size="7" fill="#41b883" text-anchor="middle">Vue.js</text>
  <rect x="144" y="376" width="36" height="14" rx="3" fill="rgba(0,212,255,0.1)" stroke="rgba(0,212,255,0.25)" stroke-width="1"/>
  <text x="162" y="386" font-family="monospace" font-size="7" fill="#00d4ff" text-anchor="middle">MySQL</text>
  <rect x="186" y="376" width="44" height="14" rx="3" fill="rgba(255,255,255,0.05)" stroke="rgba(255,255,255,0.12)" stroke-width="1"/>
  <text x="208" y="386" font-family="monospace" font-size="7" fill="rgba(255,255,255,0.4)" text-anchor="middle">REST API</text>
  <rect x="236" y="376" width="38" height="14" rx="3" fill="rgba(255,255,255,0.05)" stroke="rgba(255,255,255,0.12)" stroke-width="1"/>
  <text x="255" y="386" font-family="monospace" font-size="7" fill="rgba(255,255,255,0.4)" text-anchor="middle">Docker</text>
</svg>
