<svg xmlns="http://www.w3.org/2000/svg" width="600" height="400" viewBox="0 0 600 400">
  <defs>
    <pattern id="dots5" x="0" y="0" width="20" height="20" patternUnits="userSpaceOnUse">
      <circle cx="1" cy="1" r="0.7" fill="rgba(255,144,0,0.08)"/>
    </pattern>
  </defs>
  <rect width="600" height="400" fill="#0a0e1a"/>
  <rect width="600" height="400" fill="url(#dots5)"/>
  <!-- Header bar -->
  <rect width="600" height="44" fill="#0d1428"/>
  <rect width="600" height="1" y="44" fill="rgba(255,144,0,0.3)"/>
  <text x="20" y="27" font-family="monospace" font-size="10" fill="#FF9000" font-weight="bold">Black Arrow Express</text>
  <text x="300" y="27" font-family="monospace" font-size="8" fill="rgba(255,255,255,0.3)" text-anchor="middle">Courier Operations Platform</text>
  <rect x="510" y="12" width="76" height="20" rx="3" fill="rgba(255,144,0,0.12)" stroke="rgba(255,144,0,0.3)" stroke-width="1"/>
  <text x="548" y="25" font-family="monospace" font-size="7" fill="#FF9000" text-anchor="middle">OPS DASHBOARD</text>
  <!-- Left: Mobile app mockup -->
  <rect x="20" y="58" width="160" height="310" rx="16" fill="#0d1428" stroke="rgba(255,144,0,0.3)" stroke-width="2"/>
  <rect x="20" y="58" width="160" height="310" rx="16" fill="rgba(0,0,0,0.2)"/>
  <!-- Phone notch -->
  <rect x="68" y="62" width="64" height="8" rx="4" fill="#0a0e1a"/>
  <!-- Phone screen -->
  <rect x="26" y="76" width="148" height="284" rx="4" fill="#06091a"/>
  <!-- App header in phone -->
  <rect x="26" y="76" width="148" height="32" fill="rgba(255,144,0,0.12)"/>
  <text x="100" y="96" font-family="monospace" font-size="8" fill="#FF9000" text-anchor="middle" font-weight="bold">BAE Tracker</text>
  <!-- Tracking input -->
  <rect x="34" y="114" width="132" height="18" rx="3" fill="rgba(255,255,255,0.05)" stroke="rgba(255,144,0,0.2)" stroke-width="1"/>
  <text x="100" y="126" font-family="monospace" font-size="6" fill="rgba(255,144,0,0.4)" text-anchor="middle">Track your package...</text>
  <!-- Active delivery card -->
  <rect x="34" y="138" width="132" height="52" rx="5" fill="rgba(255,144,0,0.08)" stroke="rgba(255,144,0,0.2)" stroke-width="1"/>
  <text x="42" y="152" font-family="monospace" font-size="7" fill="#FF9000">PKG-2026-0042</text>
  <text x="42" y="163" font-family="monospace" font-size="6" fill="rgba(255,255,255,0.35)">Metro Manila → Cebu</text>
  <rect x="100" y="147" width="60" height="13" rx="3" fill="rgba(255,144,0,0.15)" stroke="rgba(255,144,0,0.3)" stroke-width="1"/>
  <text x="130" y="157" font-family="monospace" font-size="6" fill="#FF9000" text-anchor="middle">In Transit</text>
  <!-- Progress bar on card -->
  <rect x="42" y="172" width="116" height="4" rx="2" fill="rgba(255,255,255,0.08)"/>
  <rect x="42" y="172" width="75" height="4" rx="2" fill="#FF9000"/>
  <!-- Delivery list -->
  <text x="42" y="204" font-family="monospace" font-size="7" fill="rgba(255,144,0,0.5)">Today's Deliveries</text>
  <rect x="34" y="208" width="132" height="16" rx="3" fill="rgba(0,255,120,0.06)"/>
  <text x="40" y="218" font-family="monospace" font-size="6" fill="rgba(255,255,255,0.4)">PKG-0041</text>
  <rect x="122" y="210" width="38" height="12" rx="2" fill="rgba(0,255,120,0.15)"/>
  <text x="141" y="218" font-family="monospace" font-size="5" fill="#00ff78" text-anchor="middle">Done</text>
  <rect x="34" y="228" width="132" height="16" rx="3" fill="rgba(255,144,0,0.06)"/>
  <text x="40" y="238" font-family="monospace" font-size="6" fill="rgba(255,255,255,0.4)">PKG-0042</text>
  <rect x="122" y="230" width="38" height="12" rx="2" fill="rgba(255,144,0,0.15)"/>
  <text x="141" y="238" font-family="monospace" font-size="5" fill="#FF9000" text-anchor="middle">Moving</text>
  <rect x="34" y="248" width="132" height="16" rx="3" fill="rgba(0,212,255,0.06)"/>
  <text x="40" y="258" font-family="monospace" font-size="6" fill="rgba(255,255,255,0.4)">PKG-0043</text>
  <rect x="122" y="250" width="38" height="12" rx="2" fill="rgba(0,212,255,0.15)"/>
  <text x="141" y="258" font-family="monospace" font-size="5" fill="#00d4ff" text-anchor="middle">Pickup</text>
  <rect x="34" y="268" width="132" height="16" rx="3" fill="rgba(0,255,120,0.06)"/>
  <text x="40" y="278" font-family="monospace" font-size="6" fill="rgba(255,255,255,0.4)">PKG-0044</text>
  <rect x="122" y="270" width="38" height="12" rx="2" fill="rgba(0,255,120,0.15)"/>
  <text x="141" y="278" font-family="monospace" font-size="5" fill="#00ff78" text-anchor="middle">Done</text>
  <!-- Bottom nav on phone -->
  <rect x="26" y="334" width="148" height="26" fill="rgba(0,0,0,0.3)"/>
  <text x="52" y="350" font-family="monospace" font-size="8" fill="rgba(255,144,0,0.5)" text-anchor="middle">🏠</text>
  <text x="100" y="350" font-family="monospace" font-size="8" fill="rgba(255,255,255,0.3)" text-anchor="middle">📦</text>
  <text x="148" y="350" font-family="monospace" font-size="8" fill="rgba(255,255,255,0.3)" text-anchor="middle">👤</text>
  <!-- Right: Operations dashboard -->
  <rect x="196" y="58" width="392" height="310" rx="6" fill="rgba(0,0,0,0.2)" stroke="rgba(255,144,0,0.1)" stroke-width="1"/>
  <!-- Ops KPI row -->
  <rect x="204" y="66" width="88" height="56" rx="5" fill="rgba(255,144,0,0.07)" stroke="rgba(255,144,0,0.2)" stroke-width="1"/>
  <text x="248" y="81" font-family="monospace" font-size="7" fill="rgba(255,144,0,0.5)" text-anchor="middle">TODAY</text>
  <text x="248" y="103" font-family="monospace" font-size="20" fill="#FF9000" text-anchor="middle" font-weight="bold">248</text>
  <text x="248" y="115" font-family="monospace" font-size="6" fill="rgba(255,144,0,0.4)" text-anchor="middle">Deliveries</text>
  <rect x="300" y="66" width="88" height="56" rx="5" fill="rgba(0,255,120,0.06)" stroke="rgba(0,255,120,0.2)" stroke-width="1"/>
  <text x="344" y="81" font-family="monospace" font-size="7" fill="rgba(0,255,120,0.5)" text-anchor="middle">SUCCESS</text>
  <text x="344" y="103" font-family="monospace" font-size="20" fill="#00ff78" text-anchor="middle" font-weight="bold">96%</text>
  <text x="344" y="115" font-family="monospace" font-size="6" fill="rgba(0,255,120,0.4)" text-anchor="middle">Rate</text>
  <rect x="396" y="66" width="88" height="56" rx="5" fill="rgba(0,212,255,0.06)" stroke="rgba(0,212,255,0.2)" stroke-width="1"/>
  <text x="440" y="81" font-family="monospace" font-size="7" fill="rgba(0,212,255,0.5)" text-anchor="middle">RIDERS</text>
  <text x="440" y="103" font-family="monospace" font-size="20" fill="#00d4ff" text-anchor="middle" font-weight="bold">42</text>
  <text x="440" y="115" font-family="monospace" font-size="6" fill="rgba(0,212,255,0.4)" text-anchor="middle">On Duty</text>
  <rect x="492" y="66" width="88" height="56" rx="5" fill="rgba(168,85,247,0.06)" stroke="rgba(168,85,247,0.2)" stroke-width="1"/>
  <text x="536" y="81" font-family="monospace" font-size="7" fill="rgba(168,85,247,0.5)" text-anchor="middle">PENDING</text>
  <text x="536" y="103" font-family="monospace" font-size="20" fill="#a855f7" text-anchor="middle" font-weight="bold">18</text>
  <text x="536" y="115" font-family="monospace" font-size="6" fill="rgba(168,85,247,0.4)" text-anchor="middle">Packages</text>
  <!-- Route map mockup -->
  <rect x="204" y="132" width="200" height="140" rx="5" fill="rgba(0,0,0,0.3)" stroke="rgba(255,144,0,0.1)" stroke-width="1"/>
  <text x="214" y="147" font-family="monospace" font-size="7" fill="rgba(255,144,0,0.5)">Delivery Routes — NCR</text>
  <!-- Simplified map lines -->
  <line x1="220" y1="200" x2="280" y2="180" stroke="rgba(255,144,0,0.3)" stroke-width="1.5" stroke-dasharray="4,2"/>
  <line x1="280" y1="180" x2="340" y2="210" stroke="rgba(255,144,0,0.3)" stroke-width="1.5" stroke-dasharray="4,2"/>
  <line x1="340" y1="210" x2="380" y2="185" stroke="rgba(255,144,0,0.3)" stroke-width="1.5" stroke-dasharray="4,2"/>
  <line x1="220" y1="230" x2="290" y2="250" stroke="rgba(0,212,255,0.2)" stroke-width="1" stroke-dasharray="4,2"/>
  <line x1="290" y1="250" x2="360" y2="240" stroke="rgba(0,212,255,0.2)" stroke-width="1" stroke-dasharray="4,2"/>
  <!-- Location dots -->
  <circle cx="220" cy="200" r="5" fill="#FF9000"/>
  <circle cx="280" cy="180" r="4" fill="#FF9000" opacity="0.6"/>
  <circle cx="340" cy="210" r="4" fill="#FF9000" opacity="0.6"/>
  <circle cx="380" cy="185" r="5" fill="#00ff78"/>
  <circle cx="290" cy="250" r="3" fill="#00d4ff" opacity="0.6"/>
  <circle cx="360" cy="240" r="4" fill="#00ff78" opacity="0.6"/>
  <text x="220" y="215" font-family="monospace" font-size="5" fill="rgba(255,255,255,0.4)">Depot</text>
  <text x="374" y="200" font-family="monospace" font-size="5" fill="#00ff78">Done</text>
  <!-- Delivery log -->
  <rect x="412" y="132" width="172" height="140" rx="5" fill="rgba(0,0,0,0.2)" stroke="rgba(255,144,0,0.1)" stroke-width="1"/>
  <text x="422" y="147" font-family="monospace" font-size="7" fill="rgba(255,144,0,0.5)">Live Activity Feed</text>
  <rect x="412" y="152" width="172" height="1" fill="rgba(255,144,0,0.1)"/>
  <text x="420" y="167" font-family="monospace" font-size="6" fill="rgba(0,255,120,0.7)">✓ PKG-0041 delivered · 2m ago</text>
  <text x="420" y="180" font-family="monospace" font-size="6" fill="rgba(255,255,255,0.35)">Rider: Jose M. · Makati City</text>
  <text x="420" y="196" font-family="monospace" font-size="6" fill="rgba(255,144,0,0.7)">⟳ PKG-0042 en route · 5m ago</text>
  <text x="420" y="209" font-family="monospace" font-size="6" fill="rgba(255,255,255,0.35)">Rider: Mark T. · QC → Pasig</text>
  <text x="420" y="225" font-family="monospace" font-size="6" fill="rgba(0,212,255,0.7)">◉ PKG-0043 picked up · 8m</text>
  <text x="420" y="238" font-family="monospace" font-size="6" fill="rgba(255,255,255,0.35)">Rider: Ana S. · Taguig City</text>
  <text x="420" y="254" font-family="monospace" font-size="6" fill="rgba(255,80,80,0.6)">✗ PKG-0040 failed · 22m ago</text>
  <text x="420" y="267" font-family="monospace" font-size="6" fill="rgba(255,255,255,0.25)">Reason: Address not found</text>
  <!-- Bottom stats row -->
  <rect x="204" y="282" width="380" height="76" rx="5" fill="rgba(0,0,0,0.2)" stroke="rgba(255,144,0,0.08)" stroke-width="1"/>
  <text x="214" y="298" font-family="monospace" font-size="7" fill="rgba(255,144,0,0.4)">Operational Stats</text>
  <text x="230" y="322" font-family="monospace" font-size="16" fill="#FF9000" font-weight="bold">2.4h</text>
  <text x="220" y="336" font-family="monospace" font-size="6" fill="rgba(255,144,0,0.4)">Avg Delivery</text>
  <text x="340" y="322" font-family="monospace" font-size="16" fill="#00ff78" font-weight="bold">4.8★</text>
  <text x="330" y="336" font-family="monospace" font-size="6" fill="rgba(0,255,120,0.4)">Rider Rating</text>
  <text x="450" y="322" font-family="monospace" font-size="16" fill="#00d4ff" font-weight="bold">18ms</text>
  <text x="442" y="336" font-family="monospace" font-size="6" fill="rgba(0,212,255,0.4)">API Latency</text>
  <text x="230" y="352" font-family="monospace" font-size="6" fill="rgba(255,255,255,0.25)">Time per drop</text>
  <text x="330" y="352" font-family="monospace" font-size="6" fill="rgba(255,255,255,0.25)">Customer score</text>
  <text x="442" y="352" font-family="monospace" font-size="6" fill="rgba(255,255,255,0.25)">Real-time tracking</text>
  <!-- Stack footer -->
  <rect x="0" y="374" width="600" height="26" fill="rgba(0,0,0,0.5)"/>
  <rect x="0" y="374" width="600" height="1" fill="rgba(255,144,0,0.15)"/>
  <text x="12" y="390" font-family="monospace" font-size="7" fill="rgba(255,144,0,0.4)">Stack:</text>
  <rect x="50" y="379" width="44" height="13" rx="3" fill="rgba(255,100,50,0.12)" stroke="rgba(255,100,50,0.25)" stroke-width="1"/>
  <text x="72" y="388" font-family="monospace" font-size="6" fill="#ff6432" text-anchor="middle">Laravel</text>
  <rect x="100" y="379" width="42" height="13" rx="3" fill="rgba(0,212,255,0.1)" stroke="rgba(0,212,255,0.2)" stroke-width="1"/>
  <text x="121" y="388" font-family="monospace" font-size="6" fill="#00d4ff" text-anchor="middle">Vue.js</text>
  <rect x="148" y="379" width="36" height="13" rx="3" fill="rgba(255,255,255,0.05)" stroke="rgba(255,255,255,0.1)" stroke-width="1"/>
  <text x="166" y="388" font-family="monospace" font-size="6" fill="rgba(255,255,255,0.35)" text-anchor="middle">MySQL</text>
  <rect x="190" y="379" width="54" height="13" rx="3" fill="rgba(255,144,0,0.1)" stroke="rgba(255,144,0,0.2)" stroke-width="1"/>
  <text x="217" y="388" font-family="monospace" font-size="6" fill="#FF9000" text-anchor="middle">Google Maps API</text>
</svg>
